<?xml version="1.0" encoding="UTF-8" standalone="no"?>
<!-- Generator: Adobe Illustrator 23.0.3, SVG Export Plug-In . SVG Version: 6.00 Build 0)  -->

<svg
   viewBox="0 0 50 50"
   width="100px"
   height="100px"
   version="1.1"
   id="svg1"
   sodipodi:docname="twinder.svg"
   xml:space="preserve"
   inkscape:version="1.3 (0e150ed6c4, 2023-07-21)"
   xmlns:inkscape="http://www.inkscape.org/namespaces/inkscape"
   xmlns:sodipodi="http://sodipodi.sourceforge.net/DTD/sodipodi-0.dtd"
   xmlns:xlink="http://www.w3.org/1999/xlink"
   xmlns="http://www.w3.org/2000/svg"
   xmlns:svg="http://www.w3.org/2000/svg"><defs
     id="defs1"><linearGradient
       id="linearGradient13"
       inkscape:collect="always"><stop
         style="stop-color:#fd3a73;stop-opacity:1;"
         offset="0"
         id="stop14" /><stop
         style="stop-color:#ff655b;stop-opacity:1;"
         offset="1"
         id="stop15" /></linearGradient><radialGradient
       inkscape:collect="always"
       xlink:href="#linearGradient13"
       id="radialGradient15-3"
       cx="25.670914"
       cy="25.04158"
       fx="25.670914"
       fy="25.04158"
       r="21.635122"
       gradientTransform="matrix(1,0,0,1.1530991,0,-3.8338444)"
       gradientUnits="userSpaceOnUse" /></defs><sodipodi:namedview
     id="namedview1"
     pagecolor="#ffffff"
     bordercolor="#000000"
     borderopacity="0.25"
     inkscape:showpageshadow="2"
     inkscape:pageopacity="0.0"
     inkscape:pagecheckerboard="0"
     inkscape:deskcolor="#d1d1d1"
     showgrid="true"
     inkscape:zoom="9.29"
     inkscape:cx="5.0592034"
     inkscape:cy="38.697524"
     inkscape:window-width="2560"
     inkscape:window-height="1494"
     inkscape:window-x="-11"
     inkscape:window-y="-11"
     inkscape:window-maximized="1"
     inkscape:current-layer="svg1"
     inkscape:lockguides="true" /><path
     id="path3"
     style="mix-blend-mode:normal"
     d="M 5.9219997 5.9996953 L 13.154815 16.544174 C 13.875502 15.81315 14.656336 15.166949 15.478616 14.628341 L 11.618062 8.9999219 L 15.723821 8.9999219 L 21.625628 17.604611 C 22.45161 16.852635 23.042025 15.966916 23.450567 14.960213 L 17.304259 5.9996953 L 5.9219997 5.9996953 z M 25.233933 17.560221 C 24.700901 18.421748 24.029716 19.219711 23.215227 19.921367 L 24.124878 21.247442 L 26.152039 18.898979 L 25.233933 17.560221 z M 16.020461 17.806834 C 15.607527 18.163351 15.209253 18.560673 14.829671 18.98635 L 28.339146 38.681591 C 29.346913 38.385131 30.284961 37.974207 31.14631 37.469663 L 23.478751 26.291036 L 21.455113 28.633862 L 19.810555 26.245941 L 21.837011 23.898182 L 20.33267 21.704029 C 19.962949 21.862314 19.578929 22.007959 19.175702 22.135954 A 1.3892453 1.3892453 0 0 1 17.769301 21.790696 L 17.667838 21.689232 A 1.3892453 1.3892453 0 0 1 17.533962 21.531399 C 16.658434 20.337444 16.256668 19.025642 16.020461 17.806834 z M 27.794483 21.292537 L 25.766618 23.641 L 33.811143 35.368518 C 34.549625 34.597457 35.180273 33.73654 35.694564 32.810081 L 27.794483 21.292537 z M 37.390558 35.28326 C 36.806741 36.139457 36.135351 36.937538 35.38524 37.664135 L 36.301937 39.000075 L 33.804801 39.000075 C 32.652106 39.847579 31.366768 40.545631 29.966794 41.054011 L 30.615739 42.000301 L 41.997999 42.000301 L 37.390558 35.28326 z "
     transform="matrix(1.385963,0,0,1.385963,-8.2076725,-8.234301)" /><g
     transform="matrix(1.385963,0,0,1.385963,-8.2076725,-8.234301)"
     id="g3"
     style="mix-blend-mode:normal"><path
       d="M 21.455243,28.645282 9.929,42 H 6.215 L 19.810538,26.248032 Z"
       fill="#000000"
       fill-rule="nonzero"
       id="path1-3"
       style="display:inline"
       sodipodi:nodetypes="ccccc" /></g><g
     id="path1"><path
       style="color:#000000;fill:#ffffff;stroke-linecap:round;stroke-linejoin:round;stroke-miterlimit:10;-inkscape-stroke:none;fill-opacity:1"
       d="m 17.786965,20.611032 c 8.869443,-2.8154 10.277143,-10.981511 9.150567,-18.3021726 0,0 0,-0.4222062 0.281126,-0.2811251 0.587647,0.2889615 1.179908,0.5996764 1.773401,0.9321896 8.080251,4.5270849 16.388728,13.0947401 16.388728,25.8161831 0,10.137098 -8.025031,19.287665 -19.709872,19.287665 -12.670337,0 -19.7098733,-8.869443 -19.7098733,-19.428747 0,-6.335168 4.2230993,-12.670336 9.1505673,-15.486773 0,0 0.422207,0 0.422207,0.281125 0,1.4077 0.563287,4.927469 2.112067,7.039536 z"
       id="path2" /></g><g
     id="path1-31"
     style="display:inline"><path
       style="color:#000000;fill:#000000;stroke-linecap:round;stroke-linejoin:round;stroke-miterlimit:10;-inkscape-stroke:none;fill-opacity:0"
       d="m 17.786965,20.611032 c 8.869443,-2.8154 10.277143,-10.981511 9.150567,-18.3021726 0,0 0,-0.4222062 0.281126,-0.2811251 0.587647,0.2889615 1.179908,0.5996764 1.773401,0.9321896 8.080251,4.5270849 16.388728,13.0947401 16.388728,25.8161831 0,10.137098 -8.025031,19.287665 -19.709872,19.287665 -12.670337,0 -19.7098733,-8.869443 -19.7098733,-19.428747 0,-6.335168 4.2230993,-12.670336 9.1505673,-15.486773 0,0 0.422207,0 0.422207,0.281125 0,1.4077 0.563287,4.927469 2.112067,7.039536 z"
       id="path2-5" /><path
       id="path4-7"
       style="color:#000000;fill:url(#radialGradient15-3);stroke-width:0;stroke-linecap:round;stroke-linejoin:round;stroke-miterlimit:10;stroke-dasharray:none"
       d="M 43.470703,0.07910156 37.581055,6.9033203 C 35.172553,4.616629 32.536016,2.739297 29.933594,1.28125 29.314181,0.93421516 28.696139,0.60889992 28.082031,0.30664062 c -4.29e-4,-2.1523e-4 -0.0015,2.1507e-4 -0.002,0 C 27.665285,0.09907271 26.847592,-0.03669828 26.195265,0.28906252 25.542264,0.61516082 25.301627,1.1098594 25.1855,1.4003906 24.953245,1.981453 25.011672,2.3085938 25.011672,2.3085938 a 1.9254426,1.9254426 0 0 0 0.02344,0.2929687 c 0.528584,3.4348147 0.424091,6.9837088 -0.71289,9.8339845 -0.973156,2.439582 -2.681224,4.386322 -5.607422,5.695312 -0.738467,-1.689004 -1.25586,-3.97646 -1.25586,-4.701171 0,-0.552187 -0.288568,-1.183521 -0.630859,-1.525391 -0.342291,-0.34187 -0.661222,-0.46855 -0.896484,-0.546875 -0.470527,-0.156649 -0.820313,-0.134766 -0.820313,-0.134766 A 1.9254426,1.9254426 0 0 0 14.15625,11.476562 C 8.5603792,14.675044 4.0351563,21.444015 4.0351562,28.634766 c 0,5.707473 1.9144692,11.064526 5.6308594,14.996093 3.7163904,3.931568 9.2214694,6.357422 16.0058594,6.357422 12.689943,0 21.634766,-10.059733 21.634766,-21.21289 0,-7.792404 -2.93938,-14.128974 -7.045899,-19.0195316 L 48.617188,0.07910156 Z M 28.839844,2.015625 l 0.02344,0.2929688 c 0,0 -0.0062,0.030384 -0.0059,0.03125 -0.01529,-0.105983 -0.0013,-0.2186759 -0.01758,-0.3242188 z m 0.175781,3.2929688 c 2.07588,1.2493161 4.127997,2.7698825 6.011719,4.5527343 L 19.249023,28.141602 21.52832,31.451172 37.695312,12.728516 c 3.398213,4.180766 5.759766,9.498011 5.759766,16.046875 0,9.120997 -7.103511,17.363281 -17.783203,17.363281 -5.885921,0 -10.238036,-2.009378 -13.208984,-5.152344 -2.9709496,-3.142966 -4.5761722,-7.499754 -4.5761722,-12.351562 0,-4.557177 2.7461992,-9.285777 6.1093752,-12.189454 0.327374,1.689224 0.884205,3.507331 2.097656,5.16211 a 1.9254426,1.9254426 0 0 0 0.185547,0.21875 l 0.140625,0.140625 a 1.9254426,1.9254426 0 0 0 1.949219,0.478515 c 4.918334,-1.561211 8.026718,-4.815249 9.529297,-8.582031 1.08809,-2.727709 1.25082,-5.6581491 1.117187,-8.5546872 z" /></g><path
     d="m 13.585209,4.157889 28.520347,41.57889 H 36.414792 L 7.8944452,4.157889 H 13.585209 M 15.775031,0 H 0 l 34.22497,49.894668 h 15.775031 z"
     fill="#000000"
     fill-rule="nonzero"
     id="path3-0"
     style="display:none;mix-blend-mode:normal;stroke-width:1.38596" /></svg>
